<svg version="1.2" xmlns="http://www.w3.org/2000/svg" viewBox="0 0 1113 296" width="1113" height="296">
	<title>HI 2023-ai</title>
	<style>
		.s0 { fill: #5b2d90 } 
		.s1 { fill: #00adee } 
	</style>
	<g id="Layer 1">
		<g id="&lt;Group&gt;">
			<path id="&lt;Compound Path&gt;" class="s0" d="m372.2 181.2v97.1h-12.5v-97.1z"/>
			<path id="&lt;Compound Path&gt;" class="s0" d="m395.1 227.5c0-7.2-0.1-13.1-0.6-18.9h11.3l0.7 11.5h0.3c3.4-6.6 11.5-13.1 23-13.1 9.7 0 24.6 5.8 24.6 29.7v41.6h-12.6v-40.2c0-11.2-4.2-20.6-16.2-20.6-8.3 0-14.8 5.9-17 13-0.5 1.6-0.8 3.7-0.8 5.9v41.9h-12.7z"/>
			<path id="&lt;Compound Path&gt;" class="s0" d="m489.7 188.6v20h18.1v9.6h-18.1v37.6c0 8.7 2.5 13.6 9.5 13.6 3.3 0 5.8-0.5 7.4-0.9l0.5 9.5c-2.4 1-6.3 1.7-11.2 1.7-5.9 0-10.7-1.8-13.7-5.3-3.6-3.7-4.9-9.9-4.9-18.1v-38.1h-10.8v-9.6h10.8v-16.7z"/>
			<path id="&lt;Compound Path&gt;" fill-rule="evenodd" class="s0" d="m528.3 245.7c0.3 17.2 11.2 24.2 23.9 24.2 9.1 0 14.5-1.5 19.3-3.6l2.2 9.1c-4.5 2-12.1 4.3-23.2 4.3-21.5 0-34.3-14.1-34.3-35.1 0-21 12.4-37.6 32.7-37.6 22.7 0 28.8 20 28.8 32.8 0 2.6-0.3 4.6-0.4 5.9zm37.1-9c0.2-8.1-3.3-20.6-17.6-20.6-12.8 0-18.4 11.8-19.4 20.6z"/>
			<path id="&lt;Compound Path&gt;" class="s0" d="m593.4 230.3c0-8.2-0.2-15.2-0.6-21.7h11.1l0.4 13.7h0.6c3.2-9.4 10.8-15.3 19.3-15.3 1.4 0 2.4 0.1 3.6 0.4v12c-1.3-0.3-2.6-0.4-4.3-0.4-9 0-15.3 6.7-17 16.2-0.3 1.8-0.6 3.8-0.6 5.9v37.2h-12.5z"/>
			<path id="&lt;Compound Path&gt;" class="s0" d="m641 227.5c0-7.2-0.1-13.1-0.5-18.9h11.2l0.7 11.5h0.3c3.5-6.6 11.5-13.1 23-13.1 9.7 0 24.7 5.8 24.7 29.7v41.6h-12.7v-40.2c0-11.2-4.2-20.6-16.1-20.6-8.4 0-14.9 5.9-17 13-0.6 1.6-0.9 3.7-0.9 5.9v41.9h-12.7z"/>
			<path id="&lt;Compound Path&gt;" fill-rule="evenodd" class="s0" d="m759.6 278.3l-1.1-8.8h-0.4c-3.9 5.5-11.4 10.4-21.3 10.4-14.1 0-21.3-10-21.3-20 0-16.9 15-26.1 41.9-26v-1.4c0-5.8-1.6-16.1-15.8-16.1-6.5 0-13.3 2-18.2 5.2l-2.9-8.4c5.8-3.7 14.1-6.2 22.9-6.2 21.3 0 26.5 14.6 26.5 28.5v26.1c0 6 0.3 11.9 1.2 16.7zm-1.9-35.6c-13.8-0.3-29.5 2.2-29.5 15.7 0 8.2 5.5 12.1 11.9 12.1 9.1 0 14.9-5.7 16.9-11.6 0.4-1.3 0.7-2.8 0.7-4.1z"/>
			<path id="&lt;Compound Path&gt;" class="s0" d="m805.1 188.6v20h18.1v9.6h-18.1v37.6c0 8.7 2.4 13.6 9.5 13.6 3.3 0 5.7-0.5 7.3-0.9l0.6 9.5c-2.5 1-6.4 1.7-11.2 1.7-6 0-10.7-1.8-13.7-5.3-3.6-3.7-4.9-9.9-4.9-18.1v-38.1h-10.8v-9.6h10.8v-16.7z"/>
			<path id="&lt;Compound Path&gt;" class="s0" d="m851.6 189c0.1 4.3-3.1 7.8-8.1 7.8-4.5 0-7.6-3.5-7.6-7.8 0-4.5 3.3-7.9 7.9-7.9 4.7 0 7.8 3.4 7.8 7.9zm-14.1 89.3v-69.7h12.6v69.7z"/>
			<path id="&lt;Compound Path&gt;" fill-rule="evenodd" class="s0" d="m934.2 242.9c0 25.7-17.8 37-34.7 37-18.8 0-33.4-13.8-33.4-35.9 0-23.3 15.3-37 34.6-37 20 0 33.5 14.6 33.5 35.9zm-55.3 0.7c0 15.3 8.8 26.8 21.2 26.8 12.1 0 21.2-11.4 21.2-27.1 0-11.8-5.9-26.8-20.9-26.8-15 0-21.5 13.8-21.5 27.1z"/>
			<path id="&lt;Compound Path&gt;" class="s0" d="m950.2 227.5c0-7.2-0.1-13.1-0.6-18.9h11.3l0.7 11.5h0.3c3.4-6.6 11.5-13.1 23-13.1 9.7 0 24.6 5.8 24.6 29.7v41.6h-12.6v-40.2c0-11.2-4.2-20.6-16.2-20.6-8.3 0-14.8 5.9-17 13-0.5 1.6-0.8 3.7-0.8 5.9v41.9h-12.7z"/>
			<path id="&lt;Compound Path&gt;" fill-rule="evenodd" class="s0" d="m1068.7 278.3l-1-8.8h-0.4c-3.9 5.5-11.4 10.4-21.3 10.4-14.1 0-21.3-10-21.3-20 0-16.9 14.9-26.1 41.9-26v-1.4c0-5.8-1.6-16.1-15.9-16.1-6.5 0-13.2 2-18.1 5.2l-2.9-8.4c5.8-3.7 14.1-6.2 22.9-6.2 21.3 0 26.5 14.6 26.5 28.5v26.1c0 6 0.3 11.9 1.1 16.7zm-1.8-35.6c-13.9-0.3-29.6 2.2-29.6 15.7 0 8.2 5.5 12.1 12 12.1 9.1 0 14.8-5.7 16.8-11.6 0.5-1.3 0.8-2.8 0.8-4.1z"/>
			<path id="&lt;Compound Path&gt;" class="s0" d="m1099.5 176h12.7v102.3h-12.7z"/>
		</g>
		<g id="&lt;Group&gt;">
			<path id="&lt;Compound Path&gt;" class="s1" d="m387.9 44.9v39h34.2v-39h28.2v105.2h-28.2v-41.5h-34.2v41.5h-28.2v-105.2z"/>
			<path id="&lt;Compound Path&gt;" class="s1" d="m482.6 65.4c-8.8 0-14.2-6-14.2-13.3 0-7.8 5.6-13.4 14.3-13.4 8.7 0 14.2 5.6 14.4 13.4 0 7.3-5.7 13.3-14.4 13.3zm-14 84.7v-76.8h28.2v76.8z"/>
			<path id="&lt;Compound Path&gt;" fill-rule="evenodd" class="s1" d="m589.7 138.8c0 13.4-2.7 26.2-12 34.3-8.7 7.5-20.4 9.6-32.3 9.6-10.6 0-21.4-2.1-28.5-5.8l5.3-21.2c4.6 2.6 13.4 5.6 22.1 5.6 10 0 17.8-5.5 17.8-17.3v-3.5h-0.3c-4.7 5.8-11.6 8.6-19.2 8.6-18.7 0-32.3-15-32.3-37.3 0-24.1 15.6-40.2 34.8-40.2 9.3 0 15.7 3.6 19.8 10h0.3l0.9-8.3h24.2c-0.3 4.9-0.6 11.4-0.6 23.6zm-28.1-33.9c0-1.2-0.1-2.5-0.3-3.6-1.2-5.6-4.8-8.7-10-8.7-6.7 0-12.4 6.6-12.4 18.7 0 10 4.6 17.3 12.4 17.3 5.2 0 8.9-3.4 9.9-7.6 0.4-1.6 0.4-4.1 0.4-5.8z"/>
			<path id="&lt;Compound Path&gt;" class="s1" d="m607 39.2h28.2v42.2h0.3c2.5-3.1 5.7-5.4 9.1-7.1 3.4-1.8 7.6-2.7 11.7-2.7 17.3 0 27 12.3 27 34v44.5h-28.3v-41.4c0-9-2.9-14.5-9.9-14.5-5.4 0-7.8 3.1-9.2 6.1-0.5 1.3-0.7 3.3-0.7 4.5v45.3h-28.2z"/>
			<path id="&lt;Compound Path&gt;" class="s1" d="m703.8 150.1v-56.2h-9.8v-20.6h9.8v-2.5c0-8.5 3-18.8 10-25.2 6.4-6 15.1-8 22.3-8 5.3 0 9.4 0.6 13 1.4l-0.5 21.5c-2.2-0.4-4.4-0.7-7.2-0.7-6.2 0-9.6 4.3-9.6 9.8v3.7h14v20.6h-13.7v56.2z"/>
			<path id="&lt;Compound Path&gt;" class="s1" d="m771.1 65.4c-8.8 0-14.2-6-14.2-13.3 0-7.8 5.6-13.4 14.3-13.4 8.7 0 14.2 5.6 14.4 13.4 0 7.3-5.7 13.3-14.4 13.3zm-14 84.7v-76.8h28.2v76.8z"/>
			<path id="&lt;Compound Path&gt;" fill-rule="evenodd" class="s1" d="m825.5 121.5c0.9 6.1 9.8 9.5 19.8 9.5 7.2 0 14-0.7 20.9-2.9l3.6 18.7c-9.2 3.6-19.2 4.8-28.7 4.8-27 0-42.3-14.8-42.3-39.1 0-17.8 11.5-40.9 39.8-40.9 24.8 0 35.4 18.3 35.4 39.3 0 4.5-0.6 8.7-1.1 10.6zm22.6-19c0-4.4-2-12.5-10.9-12.5-8.3 0-11.6 7.7-12 12.5z"/>
			<path id="&lt;Compound Path&gt;" class="s1" d="m886.6 39.2h28.2v110.9h-28.2z"/>
			<path id="&lt;Compound Path&gt;" fill-rule="evenodd" class="s1" d="m1010 39.2v86.7c0 9.5 0.3 19 0.6 24.2h-25.1l-1.1-10.3h-0.3c-5 8.5-14.4 12-23.1 12-17.8 0-32.6-15.5-32.6-39.5-0.2-25.9 16.2-40.7 34.3-40.7 8.4 0 15.3 2.5 18.7 7.5h0.3v-39.9zm-28.2 67.3c0-1 0-2.5-0.1-3.5-1.1-5.5-5.2-9.9-11.1-9.9-9.4 0-13.6 8.5-13.6 18.4 0 11.9 5.8 18 13.4 18 5.8 0 10-4.1 10.9-9.2 0.5-1.6 0.5-3.3 0.5-5.2z"/>
		</g>
		<path id="&lt;Compound Path&gt;" fill-rule="evenodd" class="s1" d="m249.7 44.7v108.8c0 0-3 38.5-79.9 60.7-76.8-22.2-79.9-60.7-79.9-60.7v-108.8zm-17.4 16.1l-0.8-0.6q-7.1 0.4-24.2 0.4-16.5 0-24.1-0.4l-0.8 0.6v4.9l0.9 0.8q8 0.4 9.1 0.7 2.3 0.6 2.7 2.7 1 5.1 1 22.3v11.9q-5.6 0.4-28.5 0.4-14.6 0-22.9-0.4v-11.9q0-17.2 1-22.3 0.4-2.1 2.7-2.7 1.1-0.3 9.1-0.7l0.8-0.7v-5l-0.7-0.6q-7.1 0.4-24.1 0.4-16.7 0-24.2-0.4l-0.8 0.6v4.9l0.8 0.8q8 0.4 9.2 0.7 2.3 0.6 2.7 2.7 1 5.1 1 22.3v38.1q0 17.2-1 22.4-0.4 2.1-2.7 2.7-1.2 0.3-9.2 0.7l-0.8 0.7v4.9l0.8 0.7q7.3-0.5 24.2-0.5 16.3 0 24.1 0.5l0.7-0.8v-4.8l-0.8-0.7q-8-0.4-9.1-0.7-2.3-0.6-2.7-2.7-1-5.2-1-22.4v-17.3q6.3-0.4 26-0.4 21.4 0 25.4 0.4v17.3q0 17.2-1 22.4-0.4 2.1-2.7 2.7-1.1 0.3-9.1 0.7l-0.9 0.7v4.9l0.8 0.7q7.4-0.5 24.1-0.5 16.4 0 24.2 0.5l0.8-0.8v-4.8l-0.8-0.7q-8-0.4-9.2-0.7-2.3-0.6-2.7-2.7-1-5.2-1-22.4v-38.1q0-17.2 1-22.3 0.4-2.1 2.7-2.7 1.1-0.3 9.3-0.7l0.7-0.7z"/>
		<g id="&lt;Group&gt;">
			<path id="&lt;Path&gt;" class="s0" d="m335 153.3c-8.8 8.6-16 20-28.5 24.2-2.9 1-5.7-1.1-6.7-4.1q-1.4 0.6-2.5 1.5l-0.1 0.2q-0.7 1.2-1.5 2.4c-0.4 0.8-0.9 1.7-1.4 2.5-1.1 1.6-2.1 3.2-3.2 4.7l-1.6 2.4-1.7 2.3q-1.9 2.5-3.9 5c8.4-3.9 18.7-4 27.3-5.4-4.2-2.5-10.9-1.3-16.4-0.7 11-7.7 24.2-5.3 35.9-4.7-13.1 8-25 19.9-41.4 21.6-3.8 0.4-6.7-2.9-7-6.9q-1.2 0.3-2.3 0.7-3.6 3.9-7.5 7.5-4.3 3.9-8.9 7.3-2.7 2-5.5 3.9c9.1-2.5 19.3-0.7 28.1-0.6-3.6-3.1-10.5-3.1-16-3.6 12.2-5.5 24.7-0.8 36.2 1.9-14.4 5.5-28.2 15.1-44.6 13.8-3.9-0.3-6.1-4.1-5.7-8.1-1.9 0.1-3.6 0.5-5.3 1q-3.4 1.9-6.9 3.6-5.2 2.5-10.5 4.6-5.4 2.1-10.8 3.8-0.1 0-0.1 0c10.1-0.1 20 5.5 28.8 8.9-2.3-4.2-8.8-6.5-13.8-8.8 13.3-1.1 23.6 7.5 33.5 13.8-15.4 0.4-31.6 4.9-46.7-1.7-3.5-1.6-4.4-5.9-2.6-9.5-1.9-0.6-3.7-0.8-5.4-0.8-5.2 1.4-10.4 2.7-15.6 3.9q-5.5 1.3-10.9 2.6c-3.6 0.8-7.2 1.8-10.6 2.8q-1.4 0.4-2.8 0.9 0.3 0.2 0.6 0.4 0.6 0.4 1.2 0.9l1.1 0.9 1.2 1 0.5 0.5q0.3 0.2 0.6 0.5l1 1.1 0.6 0.5q0.2 0.3 0.4 0.5l1 1.2c0.4 0.4 0.6 0.8 0.9 1.2q0.5 0.6 0.9 1.2l0.9 1.2 0.4 0.6q0.2 0.4 0.3 0.7l0.8 1.3q0.3 0.6 0.6 1.3c1.8 3.6 2.8 7.4 3.4 11.2q0.4 2.9 0.5 5.8 0 2.9-0.3 5.8c-0.4 3.8-1.1 7.5-2.4 11.1l-0.4 1c-10.1-21.8-13.7-15.4-14.7-17.8-4.4-11.1 2.9-19.4 5.3-21.8q-0.8-0.8-1.6-1.5l-1-0.9q-0.2-0.2-0.5-0.4l-0.5-0.4-1.1-0.8-1-0.7q-0.6-0.4-1.1-0.8-0.6-0.3-1.1-0.6-0.6-0.4-1.2-0.7-0.6-0.3-1.2-0.6-0.3-0.1-0.7-0.3-0.3 0.2-0.7 0.3-0.6 0.3-1.1 0.6-0.6 0.3-1.2 0.7-0.6 0.3-1.1 0.6-0.5 0.4-1.1 0.8l-1.1 0.7-1 0.8-0.5 0.4q-0.3 0.2-0.5 0.4l-1 0.9q-0.8 0.7-1.6 1.5c2.4 2.4 9.6 10.7 5.2 21.8-0.9 2.4-4.5-4-14.6 17.8l-0.4-1c-1.3-3.6-2-7.3-2.4-11.1q-0.3-2.9-0.3-5.8 0.1-2.9 0.5-5.8c0.5-3.8 1.6-7.6 3.3-11.2q0.4-0.7 0.7-1.3l0.7-1.3q0.2-0.3 0.4-0.7l0.4-0.6 0.8-1.2q0.5-0.6 0.9-1.2c0.3-0.4 0.6-0.8 0.9-1.2l1-1.2q0.3-0.2 0.5-0.5l0.5-0.5 1.1-1.1q0.3-0.3 0.5-0.5l0.6-0.5 1.1-1 1.2-0.9q0.6-0.5 1.2-0.9 0.3-0.2 0.5-0.4-1.3-0.5-2.7-0.9c-3.5-1-7-2-10.6-2.8q-5.4-1.3-10.9-2.6c-5.2-1.2-10.4-2.5-15.6-3.9-1.7 0-3.5 0.2-5.4 0.8 1.7 3.6 0.9 7.9-2.7 9.5-15 6.6-31.3 2.1-46.6 1.7 9.9-6.3 20.1-14.9 33.5-13.8-5.1 2.3-11.5 4.6-13.9 8.8 8.9-3.4 18.8-9 28.9-8.9q-0.1 0-0.1 0-5.5-1.7-10.8-3.8-5.3-2.1-10.5-4.6-3.5-1.7-6.9-3.6c-1.7-0.5-3.4-0.9-5.4-1 0.5 4-1.8 7.8-5.6 8.1-16.4 1.3-30.3-8.3-44.6-13.8 11.4-2.7 23.9-7.4 36.2-1.9-5.6 0.5-12.4 0.5-16 3.6 8.8-0.1 19-1.9 28.1 0.6q-2.8-1.9-5.5-3.9-4.7-3.4-8.9-7.3-3.9-3.6-7.5-7.5-1.1-0.4-2.3-0.7c-0.4 4-3.2 7.3-7.1 6.9-16.3-1.7-28.2-13.6-41.4-21.6 11.8-0.6 25-3 36 4.7-5.5-0.6-12.3-1.8-16.4 0.7 8.6 1.4 18.9 1.5 27.2 5.4q-2-2.5-3.8-5l-1.7-2.3-1.6-2.4c-1.1-1.5-2.2-3.1-3.2-4.7-0.5-0.8-1-1.7-1.5-2.5q-0.7-1.2-1.4-2.4l-0.1-0.2q-1.2-0.9-2.6-1.5c-0.9 3-3.8 5.1-6.7 4.1-12.4-4.2-19.6-15.6-28.4-24.2 9.3 1.6 20 2.1 27.2 10-4.2-1.4-9.2-3.5-12.9-2.4 6.7 2.8 15.1 4.7 21 9.8l-0.3-0.6-1.3-2.6-1.2-2.6-0.6-1.3-0.6-1.3q-0.6-1.3-1.1-2.6c-0.7-1.8-1.4-3.5-2-5.3l-0.5-1.4-0.3-0.7-0.2-0.7-0.8-2.5q-0.6-0.7-1.5-1.4c-1.6 2.8-4.9 4.1-7.5 2.4-11-7.1-15.1-19.9-21.6-30.3 8.6 3.8 18.8 6.8 23.9 16.3-3.8-2.4-8.1-5.7-11.9-5.5 5.5 4.1 12.7 7.8 17.3 13.6q-0.8-3.2-1.5-6.4-1-5.6-1.5-11.3-0.5-5.2-0.4-10.4-0.3-0.6-0.7-1.1c-2.4 2.2-5.8 2.7-7.9 0.4-9-9.5-9.8-23-13.6-34.6 7.4 5.8 16.6 11.2 19.2 21.6-3-3.2-6.4-7.5-10.2-8.2 4.4 5.3 10.3 10.6 13.4 17.3q0.2-3.9 0.7-7.8 0.7-5.6 2-11.2 0.5-2.4 1.2-4.9c-0.2-1.4-0.4-2.9-1-4.3-2.8 1.6-6.3 1.2-7.7-1.5-6.3-11.6-3.8-24.8-4.5-37 5.7 7.4 13.2 15 13.2 25.7-2.2-3.9-4.4-8.8-7.9-10.4 3.4 7.2 9 15.1 9 23.7q2-6.5 4.7-12.8 2-4.6 4.3-9.1 0.1-1.2 0-2.5c-3.1 0.8-6.4-0.6-7-3.6-2.8-12.8 3.3-24.8 6-36.8 3.4 8.8 8.5 18.2 5.5 28.5-1-4.4-1.8-9.8-4.6-12.3 1 6.9 3.5 14.7 2.6 22.1q1.8-3.2 3.7-6.2 3.1-4.8 6.5-9.3c1.6-2.2 3.3-4.3 5.1-6.4l0.6 0.6c-1.7 2.1-3.3 4.2-4.9 6.4q-3.2 4.6-6 9.4-3.4 5.7-6.2 11.7c5.2-6.5 13.6-10.2 20.1-14.4-4.1-0.5-8.9 2.8-13 5.1 5.9-9.8 17-12.4 26.4-16-7.5 10.7-12.7 24.1-24.9 31.1-2.8 1.6-6.2 0-7.8-3-1.5 1-2.6 2.3-3.6 3.6q-0.4 1-0.8 2c-2.7 6.9-4.8 14-6.3 21.2q-1 5.5-1.6 11 0 0.2 0 0.4c2.6-8.2 9.9-14.7 15-20.9-4 0.8-7.6 5.3-10.9 8.8 2.7-11.1 12.4-17 20.3-23.3-3.9 12.5-4.6 26.8-14.1 37.2-2.2 2.4-5.9 1.9-8.4-0.5-1.1 1.6-1.8 3.2-2.3 4.8q-0.1 2.3-0.1 4.5c0 3.7 0.2 7.4 0.6 11q0.7 5.5 1.8 10.9 0.8 3.3 1.7 6.6c0.5-8.3 5.3-16.2 8.3-23.3-3.6 1.9-5.7 7.3-7.8 11.6-0.7-11.5 7-19.9 12.7-28.2-0.1 13.1 3.2 27-2.9 39.7-1.4 2.9-5.1 3.5-8.1 2-0.4 1-0.6 2-0.7 3l0.6 1.8 0.2 0.7 0.3 0.6 0.5 1.3c0.6 1.7 1.4 3.4 2.1 5.1q0.5 1.2 1.1 2.5l0.6 1.2 0.6 1.3 1.2 2.4 1.3 2.5 0.7 1.2 0.7 1.2 1.4 2.3q0.7 1.2 1.4 2.4c0.5 0.8 1 1.5 1.5 2.3q0.5 0.7 0.9 1.3c-1.7-8.1 0.4-17.2 1-25-3 3.1-3.4 9.3-4.1 14.2-4.3-11.2 0.5-22.2 3.6-32.4 4.1 13.2 12.1 26.1 10.1 40.8-0.4 3.4-3.9 5.2-7.5 4.6q-0.1 1.2 0.1 2.4l0.7 0.9 1.6 2.2q3.4 4.3 7.1 8.3 3.7 4 7.9 7.6 3.7 3.2 7.7 6.1c-5.3-8.3-6.1-19.3-8.3-28.3-2.1 4.3-0.4 10.9 0.5 16.4-8.4-10.5-7-23.8-7.2-35.6 8.9 12.6 21.7 23.6 24.5 39.8 0.7 3.8-2.4 6.9-6.4 7.5q0.5 1.7 1.3 3.1c4.9 3.2 10.1 5.9 15.5 8.4 6.6 3 13.5 5.4 20.6 7.6q1.1 0.4 2.3 0.8c-9.7-5.1-15.2-16.2-21.2-24.4-0.3 4.8 3.8 10.2 6.8 14.9-11.8-6.4-15.7-19.2-20.5-29.9 13.1 8.1 29.1 13.2 38.1 27 2.1 3.3 0.5 7.3-3 9.4 1.6 2 3.5 3.4 5.4 4.6 4.5 1.3 9 2.4 13.5 3.6 7.2 1.9 14.5 3.8 21.8 6.4 2.4 0.9 4.9 1.8 7.3 3 2.5-1.2 4.9-2.1 7.4-3 7.3-2.6 14.6-4.5 21.8-6.4 4.5-1.2 9-2.3 13.4-3.6 2-1.2 3.8-2.6 5.5-4.6-3.5-2.1-5.1-6.1-3-9.4 8.9-13.8 25-18.9 38-27-4.8 10.7-8.6 23.5-20.4 29.9 2.9-4.7 7.1-10.1 6.8-14.9-6 8.2-11.5 19.3-21.3 24.4q1.2-0.4 2.4-0.8c7-2.2 13.9-4.6 20.6-7.6 5.3-2.5 10.5-5.2 15.5-8.4q0.8-1.4 1.3-3.1c-4-0.6-7.1-3.7-6.4-7.5 2.8-16.2 15.6-27.2 24.4-39.8-0.2 11.8 1.3 25.1-7.1 35.6 0.9-5.5 2.6-12.1 0.4-16.4-2.1 9-2.9 20-8.3 28.3q4.1-2.9 7.8-6.1 4.1-3.6 7.9-7.6 3.7-4 7-8.3l1.7-2.2 0.7-0.9q0.1-1.2 0.1-2.4c-3.6 0.6-7.1-1.2-7.5-4.6-2-14.7 5.9-27.6 10.1-40.8 3 10.2 7.9 21.2 3.5 32.4-0.7-4.9-1-11.1-4-14.2 0.6 7.8 2.6 16.9 0.9 25q0.5-0.6 1-1.3c0.5-0.8 1-1.5 1.4-2.3q0.8-1.2 1.5-2.4l1.4-2.3 0.7-1.2 0.6-1.2 1.4-2.5 1.2-2.4 0.6-1.3 0.6-1.2q0.5-1.3 1.1-2.5c0.7-1.7 1.5-3.4 2.1-5.1l0.5-1.3 0.2-0.6 0.2-0.7 0.7-1.8c-0.1-1-0.4-2-0.7-3-3.1 1.5-6.8 0.9-8.2-2-6-12.7-2.7-26.6-2.8-39.7 5.7 8.3 13.3 16.7 12.7 28.2-2.1-4.3-4.2-9.7-7.8-11.6 2.9 7.1 7.7 15 8.3 23.3q0.9-3.3 1.6-6.6 1.2-5.4 1.8-10.9c0.4-3.6 0.6-7.3 0.6-11q0.1-2.2 0-4.5c-0.6-1.6-1.2-3.2-2.4-4.8-2.4 2.4-6.1 2.9-8.3 0.5-9.5-10.4-10.3-24.7-14.1-37.2 7.8 6.3 17.5 12.2 20.2 23.3-3.2-3.5-6.8-8-10.8-8.8 5.1 6.2 12.3 12.7 15 20.9q0-0.2-0.1-0.4-0.5-5.5-1.6-11c-1.4-7.2-3.6-14.3-6.3-21.2q-0.3-1-0.8-2c-0.9-1.3-2-2.6-3.5-3.6-1.7 3-5 4.6-7.9 3-12.1-7-17.3-20.4-24.8-31.1 9.4 3.6 20.4 6.2 26.4 16-4.1-2.3-9-5.6-13-5.1 6.5 4.2 14.9 7.9 20 14.4q-2.8-6-6.1-11.7-2.9-4.8-6.1-9.4c-1.5-2.2-3.1-4.3-4.9-6.4l0.7-0.6c1.8 2.1 3.5 4.2 5.1 6.4q3.4 4.5 6.4 9.3 2 3 3.7 6.2c-0.9-7.4 1.6-15.2 2.7-22.1-2.9 2.5-3.6 7.9-4.6 12.3-3.1-10.3 2-19.7 5.5-28.5 2.7 12 8.8 24 6 36.8-0.7 3-3.9 4.4-7 3.6q-0.2 1.3-0.1 2.5 2.4 4.5 4.4 9.1 2.7 6.3 4.7 12.8c0-8.6 5.6-16.5 9-23.7-3.5 1.6-5.7 6.5-7.9 10.4 0-10.7 7.5-18.3 13.2-25.7-0.7 12.2 1.8 25.4-4.5 37-1.4 2.7-4.9 3.1-7.7 1.5-0.6 1.4-0.9 2.9-1 4.3q0.6 2.5 1.2 4.9 1.3 5.6 2 11.2 0.5 3.9 0.7 7.8c3-6.7 9-12 13.4-17.3-3.8 0.7-7.2 5-10.3 8.2 2.7-10.4 11.8-15.8 19.3-21.6-3.8 11.6-4.7 25.1-13.6 34.6-2.1 2.3-5.6 1.8-7.9-0.4q-0.4 0.5-0.7 1.1 0 5.2-0.4 10.4-0.5 5.7-1.6 11.3-0.6 3.2-1.4 6.4c4.6-5.8 11.7-9.5 17.3-13.6-3.8-0.2-8.2 3.1-11.9 5.5 5.1-9.5 15.3-12.5 23.9-16.3-6.5 10.4-10.6 23.2-21.7 30.3-2.6 1.7-5.8 0.4-7.5-2.4q-0.8 0.7-1.5 1.4l-0.8 2.5-0.2 0.7-0.2 0.7-0.5 1.4c-0.6 1.8-1.3 3.5-2 5.3q-0.6 1.3-1.1 2.6l-0.6 1.3-0.6 1.3-1.2 2.6-1.4 2.6-0.3 0.6c5.9-5.1 14.3-7 21.1-9.8-3.7-1.1-8.7 1-12.9 2.4 7.2-7.9 17.9-8.4 27.2-10z"/>
			<path id="&lt;Path&gt;" class="s0" d="m97.5 19.9c-8.8 6.2-16.4 14.9-27.9 17.1-2.6 0.5-4.9-1.5-5.4-4.2-1.3 0.4-2.4 1-3.5 1.7q0 0 0 0-0.5 0.3-1 0.6-0.2 0.3-0.5 0.6-0.1 0.1-0.2 0.3l-0.6-0.6q0 0 0.1 0c0.3-0.9 0.5-1.9 0.6-2.9-2.6 0.1-5-1.6-5-4.1-0.1-10.8 6.8-19.5 11-28.7 1.3 7.7 3.9 16.1-0.3 23.9-0.1-3.7 0.2-8.1-1.7-10.7-0.3 6.5 0.6 14.2-2.4 20.4q-0.1 0.1-0.1 0.2-0.1 0.1-0.1 0.1 0 0.1-0.1 0.2 0 0.1-0.1 0.1 0.3-0.3 0.5-0.5 0 0 0.1-0.1 0 0 0 0 0 0 0 0c5.9-6 15.5-6.7 23.1-8.6-3.1-1.3-7.8-0.1-11.7 0.7 7.3-5.8 16.8-5.1 25.2-5.5z"/>
			<path id="&lt;Path&gt;" class="s0" d="m280.5 32.5c0.1 1 0.4 2 0.7 2.9q0 0 0.1 0l-0.7 0.6q-0.1-0.2-0.2-0.3-0.2-0.3-0.4-0.6-0.5-0.3-1-0.6 0 0-0.1 0-0.3-0.3-0.7-0.5c-0.9-0.5-1.7-0.9-2.7-1.2-0.5 2.7-2.8 4.7-5.5 4.2-11.5-2.2-19.1-10.9-27.8-17.1 8.4 0.4 17.8-0.3 25.1 5.5-3.9-0.8-8.5-2-11.6-0.7 7.5 1.9 17.2 2.6 23 8.6q0 0 0.1 0 0 0 0 0 0 0.1 0.1 0.1 0.1 0.2 0.3 0.4 0.1 0.1 0.1 0.1 0 0-0.1-0.1 0-0.1 0-0.2-0.1 0-0.1-0.1-0.1-0.1-0.1-0.2c-3.1-6.2-2.1-13.9-2.4-20.4-1.9 2.6-1.6 7-1.7 10.7-4.2-7.8-1.6-16.2-0.4-23.9 4.3 9.2 11.2 17.9 11.1 28.7 0 2.5-2.4 4.2-5.1 4.1z"/>
		</g>
	</g>
</svg>